<?xml version="1.0" standalone="no"?>
<!DOCTYPE svg PUBLIC "-//W3C//DTD SVG 1.0//EN" "http://www.w3.org/TR/2001/REC-SVG-20010904/DTD/svg10.dtd">
<svg xmlns="http://www.w3.org/2000/svg" xmlns:xlink="http://www.w3.org/1999/xlink" id="body_1" width="48" height="36">

<g transform="matrix(0.046875 0 0 0.046875 0 0)">
    <path transform="matrix(10.66667 0 0 10.66667 128 0)"  d="M8 72L64 72C 68.41828 72 72 68.41828 72 64L72 64L72 8C 72 3.581722 68.41828 -8.116245E-16 64 0L64 0L8 0C 3.581722 8.116245E-16 -5.41083E-16 3.581722 0 8L0 8L0 64C 5.41083E-16 68.41828 3.581722 72 8 72z" stroke="none" fill="#007EBB" fill-rule="nonzero" />
    <path transform="matrix(10.66667 0 0 10.66667 128 0)"  d="M62 62L51.31562 62L51.31562 43.80212C 51.31562 38.81276 49.41979 36.02453 45.4707 36.02453C 41.17461 36.02453 38.93008 38.92611 38.93008 43.80212L38.93008 43.80212L38.93008 62L28.63333 62L28.63333 27.33333L38.93008 27.33333L38.93008 32.00293C 38.93008 32.00293 42.02604 26.27422 49.38255 26.27422C 56.73568 26.27422 62 30.76447 62 40.05121L62 40.05121L62 62zM16.34935 22.79401C 12.84206 22.79401 10 19.92966 10 16.39701C 10 12.86436 12.84206 10 16.34935 10C 19.85664 10 22.697 12.86436 22.697 16.39701C 22.697 19.92966 19.85664 22.79401 16.34935 22.79401zM11.03255 62L21.7694 62L21.7694 27.33333L11.03255 27.33333L11.03255 62z" stroke="none" fill="#FFFFFF" fill-rule="nonzero" />
</g>
</svg>