<?xml version="1.0" standalone="no"?>
<!DOCTYPE svg PUBLIC "-//W3C//DTD SVG 1.0//EN" "http://www.w3.org/TR/2001/REC-SVG-20010904/DTD/svg10.dtd">
<svg xmlns="http://www.w3.org/2000/svg" xmlns:xlink="http://www.w3.org/1999/xlink" id="body_1" width="49" height="36">

<g transform="matrix(0.9074075 0 0 0.9 0 0)">
    <path transform="matrix(0.07910156 0 0 0.078125 6.75 0)"  d="M502.912 258.656C 502.912 125.696 393.6 17.888 258.72 17.888C 244.512 17.888 230.56 19.104 216.96 21.408C 195.136 7.872 169.312 0 141.632 0C 63.392 0 0 62.496 0 139.648C 0 165.408 7.104 189.504 19.456 210.272C 16.224 225.888 14.496 242.112 14.496 258.656C 14.496 391.648 123.84 499.456 258.688 499.456C 273.984 499.456 288.896 498.048 303.424 495.424C 323.392 505.984 346.144 512 370.4 512C 448.608 512 512 449.472 512 372.384C 512 350.112 506.688 329.056 497.28 310.368C 500.992 293.664 502.912 276.416 502.912 258.656z" stroke="none" fill="#03A9F4" fill-rule="nonzero" />
    <path transform="matrix(0.07910156 0 0 0.078125 6.75 0)"  d="M383.968 373.728C 372.672 389.504 356 401.984 334.336 410.816C 312.928 419.584 287.296 424.096 258.048 424.096C 222.976 424.096 193.568 418.016 170.592 405.984C 154.176 397.248 140.672 385.44 130.4 370.784C 120 356.064 114.784 341.44 114.784 327.264C 114.784 318.496 118.208 310.816 124.96 304.576C 131.648 298.336 140.224 295.232 150.464 295.232C 158.848 295.232 166.08 297.696 171.968 302.592C 177.568 307.328 182.4 314.304 186.272 323.232C 190.592 333.024 195.296 341.28 200.256 347.712C 205.088 354.016 211.968 359.264 220.768 363.392C 229.632 367.488 241.568 369.632 256.224 369.632C 276.416 369.632 292.992 365.344 305.408 356.992C 317.6 348.832 323.488 338.976 323.488 326.944C 323.488 317.472 320.384 309.984 314.08 304.128C 307.424 297.9839 298.656 293.216 288.032 289.92C 276.928 286.528 261.856 282.8159 243.232 278.976C 217.856 273.632 196.32 267.3279 179.232 260.0959C 161.728 252.7359 147.584 242.56 137.28 229.8559C 126.784 216.8639 121.472 200.6399 121.472 181.5679C 121.472 163.392 127.04 147.0079 138.048 132.864C 148.96 118.8159 164.896 107.84 185.472 100.384C 205.728 92.99196 229.824 89.27995 257.12 89.27995C 278.912 89.27995 298.08 91.77596 314.112 96.70395C 330.208 101.632 343.776 108.2879 354.432 116.5119C 365.184 124.8319 373.184 133.6319 378.176 142.8479C 383.232 152.1279 385.824 161.3759 385.824 170.3039C 385.824 178.9119 382.464 186.7519 375.808 193.5359C 369.088 200.3839 360.64 203.8399 350.72 203.8399C 341.696 203.8399 334.592 201.6319 329.696 197.3759C 325.12 193.3759 320.352 187.1359 315.104 178.2399C 309.024 166.8479 301.632 157.8559 293.184 151.4879C 284.96 145.3119 271.264 142.2399 252.384 142.2399C 234.912 142.2399 220.64 145.6959 210.08 152.5439C 199.904 159.1039 194.944 166.6559 194.944 175.6159C 194.944 181.0879 196.544 185.6639 199.84 189.5999C 203.296 193.8239 208.192 197.4399 214.4 200.5119C 220.8 203.6799 227.424 206.2399 234.048 208.0319C 240.832 209.8879 252.192 212.6719 267.84 216.2239C 287.616 220.3839 305.7599 225.0879 321.824 230.1759C 338.112 235.2639 352.128 241.5679 363.648 248.9599C 375.328 256.4799 384.576 266.0799 391.168 277.5999C 397.76 289.2159 401.088 303.4559 401.088 320.0319C 401.056 339.84 395.296 357.92 383.968 373.728z" stroke="none" fill="#FAFAFA" fill-rule="nonzero" />
</g>
</svg>